<?xml version="1.0" encoding="utf-8"?>
<!-- Generator: Adobe Illustrator 26.0.2, SVG Export Plug-In . SVG Version: 6.00 Build 0)  -->
<svg version="1.1" xmlns="http://www.w3.org/2000/svg" xmlns:xlink="http://www.w3.org/1999/xlink" x="0px" y="0px" width="32px"
	 height="32px" viewBox="0 0 32 32" enable-background="new 0 0 32 32" xml:space="preserve">
<g id="Layer_1_00000127722143445408468030000000536507085941021367_">
	<g>
		<polyline fill="#BAA74E" points="3.2,2.4 4,2.4 4,4.8 4.8,4.8 4.8,4 6.4,4 6.4,5.6 5.6,5.6 5.6,6.4 4.8,6.4 4.8,7.2 4,7.2 4,8 
			3.2,8 3.2,8.8 2.4,8.8 2.4,11.2 3.2,11.2 3.2,10.4 4.8,10.4 4.8,11.2 4,11.2 4,12.8 3.2,12.8 3.2,14.4 2.4,14.4 2.4,16 3.2,16 
			3.2,17.6 4,17.6 4,16.8 4.8,16.8 4.8,16 5.6,16 5.6,16.8 6.4,16.8 6.4,19.2 5.6,19.2 5.6,20 4.8,20 4.8,21.6 5.6,21.6 5.6,22.4 
			6.4,22.4 6.4,23.2 7.2,23.2 7.2,21.6 8,21.6 8,20.8 8.8,20.8 8.8,22.4 9.6,22.4 9.6,24 8.8,24 8.8,25.6 9.6,25.6 9.6,26.4 
			10.4,26.4 10.4,27.2 11.2,27.2 11.2,26.4 10.4,26.4 10.4,25.6 9.6,25.6 9.6,24 10.4,24 10.4,22.4 11.2,22.4 11.2,23.2 12,23.2 
			12,24 12.8,24 12.8,25.6 13.6,25.6 13.6,28.8 15.2,28.8 15.2,29.6 16.8,29.6 16.8,28.8 18.4,28.8 18.4,25.6 19.2,25.6 19.2,24 
			20,24 20,24.8 20.8,24.8 20.8,25.6 21.6,25.6 21.6,26.4 22.4,26.4 22.4,25.6 23.2,25.6 23.2,24 22.4,24 22.4,22.4 23.2,22.4 
			23.2,20.8 24,20.8 24,21.6 24.8,21.6 24.8,23.2 25.6,23.2 25.6,22.4 26.4,22.4 26.4,21.6 31.2,21.6 31.2,22.4 29.6,22.4 
			29.6,23.2 28,23.2 28,24 26.4,24 26.4,24.8 28.8,24.8 28.8,26.4 27.2,26.4 27.2,27.2 22.4,27.2 22.4,28 23.2,28 23.2,28.8 
			24,28.8 24,30.4 22.4,30.4 22.4,29.6 20.8,29.6 20.8,27.2 20,27.2 20,26.4 19.2,26.4 19.2,27.2 20,27.2 20,28 20.8,28 20.8,29.6 
			19.2,29.6 19.2,30.4 12.8,30.4 12.8,29.6 9.6,29.6 9.6,30.4 8,30.4 8,28.8 8.8,28.8 8.8,28 9.6,28 9.6,27.2 4.8,27.2 4.8,26.4 
			3.2,26.4 3.2,24.8 5.6,24.8 5.6,24 4,24 4,23.2 2.4,23.2 2.4,22.4 0.8,22.4 0.8,20.8 3.2,20.8 3.2,21.6 4,21.6 4,20.8 3.2,20.8 
			3.2,19.2 1.6,19.2 1.6,18.4 0.8,18.4 0.8,17.6 0,17.6 0,16 1.6,16 1.6,15.2 0.8,15.2 0.8,8.8 0,8.8 0,4.8 0.8,4.8 0.8,5.6 
			2.4,5.6 2.4,3.2 3.2,3.2 3.2,2.4 		"/>
		<polyline fill="#BAA74E" points="27.2,21.6 27.2,20 26.4,20 26.4,19.2 25.6,19.2 25.6,16.8 26.4,16.8 26.4,16 27.2,16 27.2,16.8 
			28,16.8 28,17.6 28.8,17.6 28.8,16 29.6,16 29.6,14.4 28.8,14.4 28.8,12.8 28,12.8 28,11.2 27.2,11.2 27.2,10.4 28.8,10.4 
			28.8,11.2 29.6,11.2 29.6,8.8 28.8,8.8 28.8,8 28,8 28,7.2 27.2,7.2 27.2,6.4 26.4,6.4 26.4,5.6 25.6,5.6 25.6,4 27.2,4 27.2,4.8 
			28,4.8 28,2.4 28.8,2.4 28.8,3.2 29.6,3.2 29.6,5.6 31.2,5.6 31.2,4.8 32,4.8 32,8.8 31.2,8.8 31.2,15.2 30.4,15.2 30.4,16 32,16 
			32,17.6 31.2,17.6 31.2,18.4 30.4,18.4 30.4,19.2 28.8,19.2 28.8,20.8 28,20.8 28,21.6 27.2,21.6 		"/>
		<polyline fill="#BAA74E" points="28.8,21.6 28.8,20.8 31.2,20.8 31.2,21.6 28.8,21.6 		"/>
	</g>
	<g>
		<polyline fill="#6D94E8" points="9.6,26.4 25.6,26.4 25.6,22.4 27.2,22.4 27.2,17.6 28.8,17.6 28.8,11.2 28,11.2 28,9.6 27.2,9.6 
			27.2,8 26.4,8 26.4,7.2 25.6,7.2 25.6,6.4 24,6.4 24,4.8 21.6,4.8 21.6,3.2 19.2,3.2 19.2,2.4 12.8,2.4 12.8,3.2 10.4,3.2 10.4,4 
			8.8,4 8.8,6.4 6.4,6.4 6.4,7.2 5.6,7.2 5.6,8 4.8,8 4.8,9.6 4,9.6 4,12.8 3.2,12.8 3.2,19.2 4.8,19.2 4.8,24 8.8,24 8.8,25.6 
			9.6,25.6 9.6,26.4 		"/>
		<polyline fill="#6F94E8" points="4,10.4 7.2,10.4 7.2,7.2 6.4,7.2 6.4,8 5.7,8 5.6,8.8 4.8,8.8 4.8,9.6 4,9.6 4,10.4 		"/>
		<polyline fill="#779AEA" points="9.6,5.6 9.6,6.4 8.8,6.4 8.8,5.6 9.6,5.6 		"/>
		<rect x="12" y="4" fill="#7297E9" width="8.8" height="0.8"/>
		<rect x="12.8" y="4" fill="#779AEA" width="7.2" height="0.8"/>
		<rect x="13.6" y="4" transform="matrix(1 -0.0014 0.0014 1 -0.0062 0.023)" fill="#799CEA" width="5.6" height="0.8"/>
		<polygon fill="#7D9FEB" points="3.2,15.2 4,15.2 4,14.4 4.8,14.4 4.8,12.8 5.6,12.8 5.6,11.2 6.4,11.2 6.4,10.4 7.2,10.4 7.2,9.6 
			12,9.6 12,7.2 14.4,7.2 14.4,6.4 17.6,6.4 17.6,5.6 20,5.6 20,4.8 18.4,4.8 18.4,4 14.4,4 14.4,4.8 11.2,4.8 11.2,5.6 9.6,5.6 
			9.6,6.4 8.8,6.4 8.8,7.2 7.2,7.2 7.2,8 6.4,8 6.4,8.8 5.6,8.8 5.6,9.6 4.8,9.6 4.8,11.2 4,11.2 4,12.8 3.2,12.8 		"/>
		<polyline fill="#6285D2" points="10.4,26.4 17.6,26.4 17.6,25.6 20.8,25.6 20.8,24.8 23.2,24.8 23.2,27.2 20,27.2 20,28 10.4,28 
			10.4,26.4 		"/>
	</g>
	<g>
		<polygon fill="#7A5A3A" points="8,18.4 8.8,18.4 8.8,19.2 12.8,19.2 12.8,20 13.6,20 13.6,21.6 14.4,21.6 14.4,22.4 15.2,22.4 
			15.2,21.6 16,21.6 16,24 16.8,24 16.8,22.4 17.6,22.4 17.6,20.8 18.4,20.8 18.4,19.2 19.2,19.2 19.2,20 20,20 20,20.8 20.8,20.8 
			20.8,18.4 21.6,18.4 21.6,20 22.4,20 22.4,18.4 24,18.4 24,16.8 8,16.8 		"/>
		<polygon fill="#6C5034" points="8,17.6 8.8,17.6 8.8,18.4 12,18.4 12,17.6 15.2,17.6 15.2,18.4 16,18.4 16,17.6 16.8,17.6 
			16.8,18.4 18.4,18.4 18.4,17.6 22.4,17.6 22.4,18.4 24,18.4 24,16.8 8,16.8 		"/>
		<rect x="8.8" y="16" fill="#8FB655" width="3.2" height="1.6"/>
		<rect x="15.2" y="16.8" fill="#8FB655" width="0.8" height="0.8"/>
		<rect x="16.8" y="16.8" fill="#8FB655" width="0.8" height="0.8"/>
		<polyline fill="#A0CA5F" points="11.2,16 11.2,16.8 12.8,16.8 12.8,17.6 13.6,17.6 13.6,16.8 17.6,16.8 17.6,17.6 18.4,17.6 
			18.4,16.8 23.2,16.8 23.2,17.6 24.8,17.6 24.8,16 11.2,16 		"/>
		<polygon fill="#A0CA5F" points="7.2,17.6 8,17.6 8,16.8 10.4,16.8 10.4,16 7.2,16 		"/>
		<polyline fill="#543D25" points="10.4,20 10.4,19.2 12,19.2 12,20 10.4,20 		"/>
		<polyline fill="#543D25" points="16,23.2 16,24 16.8,24 16.8,23.2 16,23.2 		"/>
		<path fill="#7A5A3A" d="M-2.7,13.2"/>
	</g>
	<g>
		<polygon fill="#575556" points="9.6,8 9.6,8.8 10.4,8.8 10.4,12 21.6,12 21.6,8.8 24,8.8 24,8 20,8 20,10.4 20.8,10.4 20.8,11.2 
			11.2,11.2 11.2,10.4 12,10.4 12,8 		"/>
		<rect x="8.8" y="8" fill="#A7A5A7" width="0.8" height="0.8"/>
		<polygon fill="#A7A5A7" points="7.2,8 7.2,9.6 8.8,9.6 8.8,8.8 8,8.8 8,8 		"/>
		<polygon fill="#908D8F" points="14.4,14.4 15.2,14.4 15.2,13.6 16.8,13.6 16.8,14.4 17.6,14.4 17.6,12.8 14.4,12.8 		"/>
		<polygon fill="#9E999D" points="11.2,8 10.4,8 10.4,8.8 8.8,8.8 8.8,9.6 8,9.6 8,16 14.4,16 14.4,13.6 15.2,13.6 15.2,12.8 
			16.8,12.8 16.8,13.6 17.6,13.6 17.6,16 24,16 24,9.6 24.8,9.6 24.8,8 24,8 24,8.8 23.2,8.8 23.2,8 22.4,8 22.4,8.8 21.6,8.8 
			21.6,8 20.8,8 20.8,9.6 21.6,9.6 21.6,12 20.8,12 20.8,11.2 20,11.2 20,12 19.2,12 19.2,11.2 18.4,11.2 18.4,12 17.6,12 
			17.6,11.2 16.8,11.2 16.8,12 15.2,12 15.2,11.2 14.4,11.2 14.4,12 13.6,12 13.6,11.2 12.8,11.2 12.8,12 12,12 12,11.2 11.2,11.2 
			11.2,12 10.4,12 10.4,9.6 11.2,9.6 		"/>
		<rect x="8" y="8" fill="#696768" width="0.8" height="0.8"/>
		<rect x="12.8" y="9.6" fill="#946433" width="1.6" height="0.8"/>
		<polyline fill="#946433" points="18.4,9.6 18.4,10.4 19.2,10.4 19.2,9.6 18.4,9.6 		"/>
		<polygon fill="#CE975B" points="13.6,10.4 13.6,11.2 14.4,11.2 14.4,10.4 		"/>
		<rect x="14.4" y="14.4" fill="#C29358" width="3.2" height="0.8"/>
		<rect x="15.2" y="13.6" fill="#875930" width="1.6" height="0.8"/>
		<polygon fill="#875930" points="14.4,15.2 14.4,16 17.6,16 17.6,15.2 		"/>
	</g>
	<g>
		<polygon fill="#FFFFFF" points="6.4,12.8 6.4,13.6 7.2,13.6 7.2,14.4 8,14.4 8,12.8 		"/>
		<polygon fill="#E2E1E2" points="8,12 8,14.4 8.8,14.4 8.8,13.6 9.6,13.6 9.6,12.8 8.8,12.8 8.8,12 		"/>
		<polygon fill="#E2E1E2" points="20.8,12.8 22.4,12.8 22.4,13.6 24,13.6 24,11.2 22.4,11.2 22.4,12 20.8,12 		"/>
		<polygon fill="#FFFFFF" points="14.4,8.8 14.4,9.6 16.8,9.6 16.8,8.8 19.2,8.8 19.2,8 16,8 16,8.8 		"/>
		<rect x="18.4" y="10.4" fill="#FFFFFF" width="1.6" height="0.8"/>
		<rect x="14.4" y="9.6" fill="#E0D2C5" width="4" height="0.8"/>
		<polygon fill="#FFFFFF" points="6.4,20.8 6.4,21.6 11.2,21.6 11.2,22.4 12.8,22.4 12.8,23.2 16,23.2 16,21.6 15.2,21.6 15.2,22.4 
			14.4,22.4 14.4,21.6 13.6,21.6 13.6,20.8 12,20.8 12,20 8,20 8,20.8 		"/>
		<polygon fill="#D9CFC6" points="14.4,20 14.4,21.6 16,21.6 16,23.2 16.8,23.2 16.8,22.4 17.6,22.4 17.6,20.8 16.8,20.8 16.8,20 		
			"/>
		<rect x="13.6" y="20.8" fill="#CEC7C1" width="0.8" height="0.8"/>
		<rect x="14.4" y="21.6" fill="#CEC7C1" width="0.8" height="0.8"/>
		<rect x="20" y="20" fill="#D9CFC6" width="0.8" height="0.8"/>
		<rect x="17.6" y="10.4" fill="#F4E5D1" width="0.8" height="0.8"/>
		<rect x="16" y="10.4" fill="#FFFFFF" width="1.6" height="0.8"/>
		<polygon fill="#FFFFFF" points="24,11.2 25.6,11.2 25.6,12 27.2,12 27.2,12.8 24.8,12.8 24.8,13.6 24,13.6 		"/>
		<polygon fill="#FFFFFF" points="17.6,23.2 20,23.2 20,22.4 22.4,22.4 22.4,21.6 20.8,21.6 20.8,20.8 17.6,20.8 		"/>
		<polygon fill="#FFFFFF" points="21.6,4 23.2,4 23.2,5.6 24.8,5.6 24.8,7.2 22.4,7.2 22.4,6.4 21.6,6.4 21.6,5.6 20,5.6 20,4.8 
			21.6,4.8 		"/>
		<polygon fill="#FFFFFF" points="7.2,6.4 8.8,6.4 8.8,5.6 11.2,5.6 11.2,4.8 8,4.8 8,5.6 7.2,5.6 		"/>
	</g>
	<g>
		<polyline fill="#AC9B4F" points="1.6,7.2 1.6,5.6 2.4,5.6 2.4,3.2 4,3.2 4,8 3.2,8 3.2,8.8 1.6,8.8 1.6,7.2 		"/>
		<polyline fill="#AC9B4F" points="2.4,9.6 0.8,9.6 0.8,15.2 1.6,15.2 1.6,16.8 3.2,16.8 3.2,16 2.4,16 2.4,9.6 		"/>
		<polyline fill="#AC9B4F" points="3.2,17.6 4,17.6 4,18.4 3.2,18.4 3.2,17.6 		"/>
		<polyline fill="#AC9B4F" points="3.2,20 3.2,20.8 4,20.8 4,24 6.4,24 6.4,22.4 5.6,22.4 5.6,21.6 4.8,21.6 4.8,20 3.2,20 		"/>
		<polyline fill="#AC9B4F" points="8.8,24.8 8,24.8 8,27.2 9.6,27.2 9.6,28 11.2,28 11.2,28.8 12.8,28.8 12.8,30.4 19.2,30.4 
			19.2,28.8 20.8,28.8 20.8,28 18.4,28 18.4,28.8 16.8,28.8 16.8,29.6 15.2,29.6 15.2,28.8 13.6,28.8 13.6,27.2 10.4,27.2 
			10.4,26.4 9.6,26.4 9.6,25.6 8.8,25.6 8.8,24.8 		"/>
		<polyline fill="#AC9B4F" points="27.2,21.6 26.4,21.6 26.4,22.4 25.6,22.4 25.6,23.2 23.2,23.2 23.2,25.6 22.4,25.6 22.4,26.4 
			20.8,26.4 20.8,28 22.4,28 22.4,27.2 25.6,27.2 25.6,24 27.2,24 27.2,21.6 		"/>
		<polyline fill="#AC9B4F" points="28.8,20 28.8,20.8 28,20.8 28,21.6 27.2,21.6 27.2,20 28.8,20 		"/>
		<polyline fill="#AC9B4F" points="28,17.6 28,18.4 30.4,18.4 30.4,15.2 31.2,15.2 31.2,5.6 29.6,5.6 29.6,8 28.8,8 28.8,8.8 
			29.6,8.8 29.6,12 29.6,16 28.8,16 28.8,17.6 28,17.6 		"/>
		<polyline fill="#AC9B4F" points="28,3.2 28,5.6 29.6,5.6 29.6,3.2 28,3.2 		"/>
	</g>
	<g>
		<polyline fill="#BAA74E" points="0,5.6 0,8.8 0.8,8.8 0.8,10.4 1.6,10.4 1.6,9.6 2.4,9.6 2.4,8 4,8 4,7.2 1.6,7.2 1.6,6.4 
			0.8,6.4 0.8,5.6 0,5.6 		"/>
		<polygon fill="#BAA74E" points="2.4,5.6 2.4,7.2 4.8,7.2 4.8,6.4 5.6,6.4 5.6,5.6 6.4,5.6 6.4,4.8 3.2,4.8 3.2,5.6 		"/>
		<polygon fill="#BAA74E" points="1.6,14.4 2.4,14.4 2.4,13.6 3.2,13.6 3.2,12.8 1.6,12.8 		"/>
		<polyline fill="#BAA74E" points="3.2,12 3.2,11.2 4,11.2 4,12 3.2,12 		"/>
		<rect x="4" y="10.4" fill="#BAA74E" width="0.8" height="0.8"/>
		<polyline fill="#BAA74E" points="28,12 28,12.8 28.8,12.8 28.8,14.4 30.4,14.4 30.4,12.8 29.6,12.8 29.6,12 28,12 		"/>
		<polyline fill="#BAA74E" points="26.4,4 25.6,4 25.6,5.6 26.4,5.6 26.4,6.4 27.2,6.4 27.2,7.2 28,7.2 28,8 29.6,8 29.6,9.6 
			30.4,9.6 30.4,10.4 31.2,10.4 31.2,8.8 32,8.8 32,6.4 30.4,6.4 30.4,7.2 29.6,7.2 29.6,6.4 28.8,6.4 28.8,5.6 27.2,5.6 27.2,4.8 
			26.4,4.8 26.4,4 		"/>
		<polyline fill="#BAA74E" points="28.8,17.6 28.8,16.8 29.6,16.8 29.6,17.6 28.8,17.6 		"/>
		<polyline fill="#BAA74E" points="30.4,16.8 30.4,17.6 29.6,17.6 29.6,18.4 28,18.4 28,17.6 26.4,17.6 26.4,18.4 25.6,18.4 
			25.6,19.2 26.4,19.2 26.4,20 27.2,20 27.2,20.8 28,20.8 28,20 28.8,20 28.8,19.2 30.4,19.2 30.4,18.4 31.2,18.4 31.2,17.6 
			32,17.6 32,16.8 30.4,16.8 		"/>
		<polyline fill="#BAA74E" points="28.8,21.6 28.8,20.8 29.6,20.8 29.6,21.6 28.8,21.6 		"/>
		<polyline fill="#BAA74E" points="30.4,21.6 30.4,22.4 31.2,22.4 31.2,21.6 30.4,21.6 		"/>
		<polyline fill="#BAA74E" points="28.8,22.4 28.8,23.2 29.6,23.2 29.6,22.4 28.8,22.4 		"/>
		<polyline fill="#BAA74E" points="27.2,22.4 27.2,21.6 28,21.6 28,22.4 27.2,22.4 		"/>
		<polyline fill="#BAA74E" points="27.2,24 28,24 28,23.2 27.2,23.2 27.2,24 		"/>
		<polyline fill="#BAA74E" points="22.4,23.2 22.4,24 23.2,24 23.2,24.8 24,24.8 24,24 24.8,24 24.8,22.4 24,22.4 24,21.6 
			23.2,21.6 23.2,23.2 22.4,23.2 		"/>
		<polyline fill="#BAA74E" points="23.2,26.4 23.2,25.6 25.6,25.6 25.6,24.8 27.2,24.8 27.2,25.6 28.8,25.6 28.8,26.4 27.2,26.4 
			27.2,27.2 25.6,27.2 25.6,26.4 23.2,26.4 		"/>
		<polyline fill="#BAA74E" points="18.4,26.4 18.4,28 20,28 20,27.2 19.2,27.2 19.2,26.4 18.4,26.4 		"/>
		<polyline fill="#BAA74E" points="19.2,24.8 19.2,26.4 20,26.4 20,27.2 21.6,27.2 21.6,25.6 20.8,25.6 20.8,24.8 19.2,24.8 		"/>
		<polyline fill="#BAA74E" points="19.2,29.6 19.2,28.8 20.8,28.8 20.8,28 21.6,28 21.6,28.8 23.2,28.8 23.2,29.6 24,29.6 24,30.4 
			22.4,30.4 22.4,29.6 19.2,29.6 		"/>
		<polygon fill="#BAA74E" points="8,28.8 8,30.4 9.6,30.4 9.6,29.6 12.8,29.6 12.8,28.8 11.2,28.8 11.2,28 8.8,28 8.8,28.8 		"/>
		<polyline fill="#BAA74E" points="13.6,27.2 13.6,28 11.2,28 11.2,26.4 10.4,26.4 10.4,25.6 9.6,25.6 9.6,24 10.4,24 10.4,23.2 
			11.2,23.2 11.2,24 12,24 12,24.8 12.8,24.8 12.8,27.2 13.6,27.2 		"/>
		<polyline fill="#BAA74E" points="8.8,27.2 6.4,27.2 6.4,26.4 4.8,26.4 4.8,25.6 7.2,25.6 7.2,26.4 8.8,26.4 8.8,27.2 		"/>
		<polyline fill="#BAA74E" points="8,21.6 8,22.4 7.2,22.4 7.2,23.2 6.4,23.2 6.4,24.8 7.2,24.8 7.2,25.6 8,25.6 8,24.8 8.8,24.8 
			8.8,24 9.6,24 9.6,22.4 8.8,22.4 8.8,21.6 8,21.6 		"/>
		<polyline fill="#BAA74E" points="0.8,21.6 0.8,22.4 2.4,22.4 2.4,23.2 4,23.2 4,22.4 3.2,22.4 3.2,20.8 2.4,20.8 2.4,21.6 
			0.8,21.6 		"/>
		<polyline fill="#BAA74E" points="4,21.6 4.8,21.6 4.8,22.4 4,22.4 4,21.6 		"/>
		<polygon fill="#BAA74E" points="4,20.8 4.8,20.8 4.8,20 5.6,20 5.6,19.2 6.4,19.2 6.4,18.4 5.6,18.4 5.6,16.8 4.8,16.8 4.8,17.6 
			4,17.6 4,18.4 2.4,18.4 2.4,17.6 1.6,17.6 1.6,16.8 0.8,16.8 0.8,16 0,16 0,17.6 0.8,17.6 0.8,18.4 1.6,18.4 1.6,19.2 3.2,19.2 
			3.2,20 4,20 		"/>
	</g>
	<g>
		<rect x="2.4" y="13.6" fill="#9E8D41" width="0.8" height="0.8"/>
		<rect x="3.2" y="12" fill="#9E8D41" width="0.8" height="0.8"/>
		<rect x="4" y="23.2" fill="#928442" width="0.8" height="0.8"/>
		<rect x="5.6" y="24" fill="#928442" width="0.8" height="0.8"/>
		<polyline fill="#9E8D41" points="3.2,25.6 3.2,26.4 4.8,26.4 4.8,25.6 3.2,25.6 		"/>
		<rect x="4.8" y="26.4" fill="#9E8D41" width="1.6" height="0.8"/>
		<polyline fill="#928442" points="9.6,27.2 9.6,28 10.4,28 10.4,27.2 9.6,27.2 		"/>
		<polyline fill="#928442" points="13.6,29.6 13.6,30.4 12.8,30.4 12.8,29.6 13.6,29.6 		"/>
		<polyline fill="#928442" points="17.6,29.6 17.6,30.4 19.2,30.4 19.2,29.6 17.6,29.6 		"/>
		<rect x="23.2" y="26.4" fill="#9E8D41" width="2.4" height="0.8"/>
		<polyline fill="#9E8D41" points="26.4,23.2 26.4,24 27.2,24 27.2,23.2 26.4,23.2 		"/>
		<polyline fill="#9E8D41" points="28,22.4 28,23.2 28.8,23.2 28.8,22.4 28,22.4 		"/>
		<polyline fill="#9E8D41" points="29.6,21.6 29.6,22.4 30.4,22.4 30.4,21.6 29.6,21.6 		"/>
		<rect x="25.6" y="24" fill="#928442" width="0.8" height="0.8"/>
	</g>
	<g>
		<rect y="4.8" fill="#C4B36A" width="0.8" height="0.8"/>
		<rect x="0.8" y="5.6" fill="#C4B36A" width="0.8" height="0.8"/>
		<rect x="1.6" y="7.2" fill="#C4B36A" width="0.8" height="0.8"/>
		<polygon fill="#C4B36A" points="2.4,6.4 2.4,7.2 4,7.2 4,5.6 3.2,5.6 3.2,6.4 		"/>
		<polygon fill="#C4B36A" points="4,4.8 4,5.6 5.6,5.6 5.6,4.8 6.4,4.8 6.4,4 4.8,4 4.8,4.8 		"/>
		<polygon fill="#C4B36A" points="1.6,12.8 1.6,12 2.4,12 2.4,11.2 3.2,11.2 3.2,12.8 		"/>
		<rect x="3.2" y="10.4" fill="#C4B36A" width="0.8" height="0.8"/>
		<rect x="0.8" y="16" fill="#C4B36A" width="0.8" height="0.8"/>
		<polygon fill="#C4B36A" points="1.6,17.6 2.4,17.6 2.4,18.4 3.2,18.4 3.2,17.6 3.2,16.8 1.6,16.8 		"/>
		<rect x="4" y="16.8" fill="#C4B36A" width="0.8" height="0.8"/>
		<rect x="4.8" y="16" fill="#C4B36A" width="0.8" height="0.8"/>
		<rect x="5.6" y="16.8" fill="#C4B36A" width="0.8" height="1.6"/>
		<rect x="3.2" y="21.6" fill="#C4B36A" width="0.8" height="0.8"/>
		<rect x="4" y="22.4" fill="#C4B36A" width="0.8" height="0.8"/>
		<rect x="4.8" y="23.2" fill="#C4B36A" width="0.8" height="0.8"/>
		<rect x="0.8" y="20.8" fill="#C4B36A" width="1.6" height="0.8"/>
		<rect x="3.2" y="24.8" fill="#C4B36A" width="4" height="0.8"/>
		<rect x="7.2" y="25.6" fill="#C4B36A" width="1.6" height="0.8"/>
		<rect x="8.8" y="26.4" fill="#C4B36A" width="0.8" height="0.8"/>
		<rect x="7.2" y="21.6" fill="#C4B36A" width="0.8" height="0.8"/>
		<rect x="8" y="20.8" fill="#C4B36A" width="0.8" height="0.8"/>
		<rect x="10.4" y="22.4" fill="#C4B36A" width="0.8" height="0.8"/>
		<rect x="11.2" y="23.2" fill="#C4B36A" width="0.8" height="0.8"/>
		<rect x="12" y="24" fill="#C4B36A" width="0.8" height="0.8"/>
		<rect x="12.8" y="25.6" fill="#C4B36A" width="0.8" height="1.6"/>
		<rect x="3.2" y="2.4" fill="#B8AB6B" width="0.8" height="0.8"/>
		<rect x="13.6" y="28.8" fill="#B8AB6B" width="1.6" height="0.8"/>
		<rect x="15.2" y="29.6" fill="#B8AB6B" width="0.8" height="0.8"/>
		<rect x="17.6" y="28.8" fill="#B8AB6B" width="0.8" height="0.8"/>
		<rect x="18.4" y="25.6" fill="#C4B36A" width="0.8" height="0.8"/>
		<rect x="19.2" y="24" fill="#C4B36A" width="0.8" height="0.8"/>
		<rect x="21.6" y="28" fill="#C4B36A" width="1.6" height="0.8"/>
		<rect x="23.2" y="28.8" fill="#C4B36A" width="0.8" height="0.8"/>
		<rect x="24" y="24.8" fill="#C4B36A" width="1.6" height="0.8"/>
		<rect x="22.4" y="22.4" fill="#C4B36A" width="0.8" height="0.8"/>
		<rect x="23.2" y="20.8" fill="#C4B36A" width="0.8" height="0.8"/>
		<rect x="24" y="21.6" fill="#C4B36A" width="0.8" height="0.8"/>
		<rect x="27.2" y="24.8" fill="#C4B36A" width="1.6" height="0.8"/>
		<rect x="27.2" y="22.4" fill="#C4B36A" width="0.8" height="0.8"/>
		<rect x="28" y="21.6" fill="#C4B36A" width="1.6" height="0.8"/>
		<rect x="29.6" y="20.8" fill="#C4B36A" width="1.6" height="0.8"/>
		<polygon fill="#C4B36A" points="25.6,18.4 26.4,18.4 26.4,17.6 28,17.6 28,16.8 27.2,16.8 27.2,16 26.4,16 26.4,16.8 25.6,16.8 		
			"/>
		<rect x="28.8" y="17.6" fill="#C4B36A" width="0.8" height="0.8"/>
		<rect x="29.6" y="16.8" fill="#C4B36A" width="0.8" height="0.8"/>
		<rect x="30.4" y="16" fill="#C4B36A" width="1.6" height="0.8"/>
		<rect x="29.6" y="12" fill="#C4B36A" width="0.8" height="0.8"/>
		<polygon fill="#C4B36A" points="28,12 29.6,12 29.6,11.2 28.8,11.2 28.8,10.4 27.2,10.4 27.2,11.2 28,11.2 		"/>
		<rect x="28.8" y="5.6" fill="#C4B36A" width="0.8" height="0.8"/>
		<polygon fill="#C4B36A" points="30.4,6.4 32,6.4 32,4.8 31.2,4.8 31.2,5.6 30.4,5.6 		"/>
		<rect x="27.2" y="4.8" fill="#C4B36A" width="1.6" height="0.8"/>
		<rect x="26.4" y="4" fill="#C4B36A" width="0.8" height="0.8"/>
		<rect x="28.8" y="3.2" fill="#B8AB6B" width="0.8" height="0.8"/>
		<rect x="28" y="2.4" fill="#B8AB6B" width="0.8" height="0.8"/>
		<rect x="26.4" y="22.4" fill="#B8AB6B" width="0.8" height="0.8"/>
	</g>
</g>
</svg>
