<?xml version="1.0" encoding="utf-8"?>
<!-- Generator: Adobe Illustrator 26.0.2, SVG Export Plug-In . SVG Version: 6.00 Build 0)  -->
<!DOCTYPE svg PUBLIC "-//W3C//DTD SVG 1.1//EN" "http://www.w3.org/Graphics/SVG/1.1/DTD/svg11.dtd">
<svg version="1.1" id="Layer_1" xmlns="http://www.w3.org/2000/svg" xmlns:xlink="http://www.w3.org/1999/xlink" x="0px" y="0px"
	 viewBox="0 0 32 32" enable-background="new 0 0 32 32" xml:space="preserve">
<style type="text/css">
	.st0{fill:#BAA74E;}
	.st1{fill:#6D94E8;}
	.st2{fill:#6F94E8;}
	.st3{fill:#779AEA;}
	.st4{fill:#7297E9;}
	.st5{fill:#799CEA;}
	.st6{fill:#7D9FEB;}
	.st7{fill:#6285D2;}
	.st8{fill:#7A5A3A;}
	.st9{fill:#6C5034;}
	.st10{fill:#8FB655;}
	.st11{fill:#A0CA5F;}
	.st12{fill:#543D25;}
	.st13{fill:#575556;}
	.st14{fill:#A7A5A7;}
	.st15{fill:#908D8F;}
	.st16{fill:#9E999D;}
	.st17{fill:#696768;}
	.st18{fill:#946433;}
	.st19{fill:#CE975B;}
	.st20{fill:#C29358;}
	.st21{fill:#875930;}
	.st22{fill:#FFFFFF;}
	.st23{fill:#E2E1E2;}
	.st24{fill:#E0D2C5;}
	.st25{fill:#D9CFC6;}
	.st26{fill:#CEC7C1;}
	.st27{fill:#F4E5D1;}
	.st28{fill:#AC9B4F;}
	.st29{fill:#9E8D41;}
	.st30{fill:#928442;}
	.st31{fill:#C4B36A;}
	.st32{fill:#B8AB6B;}
</style>
<g id="Mask">
	<polyline class="st0" points="3.2,2.4 4,2.4 4,4.8 4.8,4.8 4.8,4 6.4,4 6.4,5.6 5.6,5.6 5.6,6.4 4.8,6.4 4.8,7.2 4,7.2 4,8 3.2,8 
		3.2,8.8 2.4,8.8 2.4,11.2 3.2,11.2 3.2,10.4 4.8,10.4 4.8,11.2 4,11.2 4,12.8 3.2,12.8 3.2,14.4 2.4,14.4 2.4,16 3.2,16 3.2,17.6 
		4,17.6 4,16.8 4.8,16.8 4.8,16 5.6,16 5.6,16.8 6.4,16.8 6.4,19.2 5.6,19.2 5.6,20 4.8,20 4.8,21.6 5.6,21.6 5.6,22.4 6.4,22.4 
		6.4,23.2 7.2,23.2 7.2,21.6 8,21.6 8,20.8 8.8,20.8 8.8,22.4 9.6,22.4 9.6,24 8.8,24 8.8,25.6 9.6,25.6 9.6,26.4 10.4,26.4 
		10.4,27.2 11.2,27.2 11.2,26.4 10.4,26.4 10.4,25.6 9.6,25.6 9.6,24 10.4,24 10.4,22.4 11.2,22.4 11.2,23.2 12,23.2 12,24 12.8,24 
		12.8,25.6 13.6,25.6 13.6,28.8 15.2,28.8 15.2,29.6 16.8,29.6 16.8,28.8 18.4,28.8 18.4,25.6 19.2,25.6 19.2,24 20,24 20,24.8 
		20.8,24.8 20.8,25.6 21.6,25.6 21.6,26.4 22.4,26.4 22.4,25.6 23.2,25.6 23.2,24 22.4,24 22.4,22.4 23.2,22.4 23.2,20.8 24,20.8 
		24,21.6 24.8,21.6 24.8,23.2 25.6,23.2 25.6,22.4 26.4,22.4 26.4,21.6 31.2,21.6 31.2,22.4 29.6,22.4 29.6,23.2 28,23.2 28,24 
		26.4,24 26.4,24.8 28.8,24.8 28.8,26.4 27.2,26.4 27.2,27.2 22.4,27.2 22.4,28 23.2,28 23.2,28.8 24,28.8 24,30.4 22.4,30.4 
		22.4,29.6 20.8,29.6 20.8,27.2 20,27.2 20,26.4 19.2,26.4 19.2,27.2 20,27.2 20,28 20.8,28 20.8,29.6 19.2,29.6 19.2,30.4 
		12.8,30.4 12.8,29.6 9.6,29.6 9.6,30.4 8,30.4 8,28.8 8.8,28.8 8.8,28 9.6,28 9.6,27.2 4.8,27.2 4.8,26.4 3.2,26.4 3.2,24.8 
		5.6,24.8 5.6,24 4,24 4,23.2 2.4,23.2 2.4,22.4 0.8,22.4 0.8,20.8 3.2,20.8 3.2,21.6 4,21.6 4,20.8 3.2,20.8 3.2,19.2 1.6,19.2 
		1.6,18.4 0.8,18.4 0.8,17.6 0,17.6 0,16 1.6,16 1.6,15.2 0.8,15.2 0.8,8.8 0,8.8 0,4.8 0.8,4.8 0.8,5.6 2.4,5.6 2.4,3.2 3.2,3.2 
		3.2,2.4 	"/>
	<polyline class="st0" points="27.2,21.6 27.2,20 26.4,20 26.4,19.2 25.6,19.2 25.6,16.8 26.4,16.8 26.4,16 27.2,16 27.2,16.8 
		28,16.8 28,17.6 28.8,17.6 28.8,16 29.6,16 29.6,14.4 28.8,14.4 28.8,12.8 28,12.8 28,11.2 27.2,11.2 27.2,10.4 28.8,10.4 
		28.8,11.2 29.6,11.2 29.6,8.8 28.8,8.8 28.8,8 28,8 28,7.2 27.2,7.2 27.2,6.4 26.4,6.4 26.4,5.6 25.6,5.6 25.6,4 27.2,4 27.2,4.8 
		28,4.8 28,2.4 28.8,2.4 28.8,3.2 29.6,3.2 29.6,5.6 31.2,5.6 31.2,4.8 32,4.8 32,8.8 31.2,8.8 31.2,15.2 30.4,15.2 30.4,16 32,16 
		32,17.6 31.2,17.6 31.2,18.4 30.4,18.4 30.4,19.2 28.8,19.2 28.8,20.8 28,20.8 28,21.6 27.2,21.6 	"/>
	<polyline class="st0" points="28.8,21.6 28.8,20.8 31.2,20.8 31.2,21.6 28.8,21.6 	"/>
</g>
<g id="Globe">
	<polyline class="st1" points="9.6,26.4 25.6,26.4 25.6,22.4 27.2,22.4 27.2,17.6 28.8,17.6 28.8,11.2 28,11.2 28,9.6 27.2,9.6 
		27.2,8 26.4,8 26.4,7.2 25.6,7.2 25.6,6.4 24,6.4 24,4.8 21.6,4.8 21.6,3.2 19.2,3.2 19.2,2.4 12.8,2.4 12.8,3.2 10.4,3.2 10.4,4 
		8.8,4 8.8,6.4 6.4,6.4 6.4,7.2 5.6,7.2 5.6,8 4.8,8 4.8,9.6 4,9.6 4,12.8 3.2,12.8 3.2,19.2 4.8,19.2 4.8,24 8.8,24 8.8,25.6 
		9.6,25.6 9.6,26.4 	"/>
	<polyline class="st2" points="4,10.4 7.2,10.4 7.2,7.2 6.4,7.2 6.4,8 5.7,8 5.6,8.8 4.8,8.8 4.8,9.6 4,9.6 4,10.4 	"/>
	<polyline class="st3" points="9.6,5.6 9.6,6.4 8.8,6.4 8.8,5.6 9.6,5.6 	"/>
	<rect x="12" y="4" class="st4" width="8.8" height="0.8"/>
	<rect x="12.8" y="4" class="st3" width="7.2" height="0.8"/>
	
		<rect x="13.6" y="4" transform="matrix(1 -1.401605e-03 1.401605e-03 1 -6.159439e-03 2.298957e-02)" class="st5" width="5.6" height="0.8"/>
	<polygon class="st6" points="3.2,15.2 4,15.2 4,14.4 4.8,14.4 4.8,12.8 5.6,12.8 5.6,11.2 6.4,11.2 6.4,10.4 7.2,10.4 7.2,9.6 
		12,9.6 12,7.2 14.4,7.2 14.4,6.4 17.6,6.4 17.6,5.6 20,5.6 20,4.8 18.4,4.8 18.4,4 14.4,4 14.4,4.8 11.2,4.8 11.2,5.6 9.6,5.6 
		9.6,6.4 8.8,6.4 8.8,7.2 7.2,7.2 7.2,8 6.4,8 6.4,8.8 5.6,8.8 5.6,9.6 4.8,9.6 4.8,11.2 4,11.2 4,12.8 3.2,12.8 	"/>
	<polyline class="st7" points="10.4,26.4 17.6,26.4 17.6,25.6 20.8,25.6 20.8,24.8 23.2,24.8 23.2,27.2 20,27.2 20,28 10.4,28 
		10.4,26.4 	"/>
</g>
<g id="Flying_Island">
	<polygon class="st8" points="8,18.4 8.8,18.4 8.8,19.2 12.8,19.2 12.8,20 13.6,20 13.6,21.6 14.4,21.6 14.4,22.4 15.2,22.4 
		15.2,21.6 16,21.6 16,24 16.8,24 16.8,22.4 17.6,22.4 17.6,20.8 18.4,20.8 18.4,19.2 19.2,19.2 19.2,20 20,20 20,20.8 20.8,20.8 
		20.8,18.4 21.6,18.4 21.6,20 22.4,20 22.4,18.4 24,18.4 24,16.8 8,16.8 	"/>
	<polygon class="st9" points="8,17.6 8.8,17.6 8.8,18.4 12,18.4 12,17.6 15.2,17.6 15.2,18.4 16,18.4 16,17.6 16.8,17.6 16.8,18.4 
		18.4,18.4 18.4,17.6 22.4,17.6 22.4,18.4 24,18.4 24,16.8 8,16.8 	"/>
	<rect x="8.8" y="16" class="st10" width="3.2" height="1.6"/>
	<rect x="15.2" y="16.8" class="st10" width="0.8" height="0.8"/>
	<rect x="16.8" y="16.8" class="st10" width="0.8" height="0.8"/>
	<polyline class="st11" points="11.2,16 11.2,16.8 12.8,16.8 12.8,17.6 13.6,17.6 13.6,16.8 17.6,16.8 17.6,17.6 18.4,17.6 
		18.4,16.8 23.2,16.8 23.2,17.6 24.8,17.6 24.8,16 11.2,16 	"/>
	<polygon class="st11" points="7.2,17.6 8,17.6 8,16.8 10.4,16.8 10.4,16 7.2,16 	"/>
	<polyline class="st12" points="10.4,20 10.4,19.2 12,19.2 12,20 10.4,20 	"/>
	<polyline class="st12" points="16,23.2 16,24 16.8,24 16.8,23.2 16,23.2 	"/>
	<path class="st8" d="M-2.7,13.2"/>
</g>
<g id="Castle">
	<polygon class="st13" points="9.6,8 9.6,8.8 10.4,8.8 10.4,12 21.6,12 21.6,8.8 24,8.8 24,8 20,8 20,10.4 20.8,10.4 20.8,11.2 
		11.2,11.2 11.2,10.4 12,10.4 12,8 	"/>
	<rect x="8.8" y="8" class="st14" width="0.8" height="0.8"/>
	<polygon class="st14" points="7.2,8 7.2,9.6 8.8,9.6 8.8,8.8 8,8.8 8,8 	"/>
	<polygon class="st15" points="14.4,14.4 15.2,14.4 15.2,13.6 16.8,13.6 16.8,14.4 17.6,14.4 17.6,12.8 14.4,12.8 	"/>
	<polygon class="st16" points="11.2,8 10.4,8 10.4,8.8 8.8,8.8 8.8,9.6 8,9.6 8,16 14.4,16 14.4,13.6 15.2,13.6 15.2,12.8 
		16.8,12.8 16.8,13.6 17.6,13.6 17.6,16 24,16 24,9.6 24.8,9.6 24.8,8 24,8 24,8.8 23.2,8.8 23.2,8 22.4,8 22.4,8.8 21.6,8.8 
		21.6,8 20.8,8 20.8,9.6 21.6,9.6 21.6,12 20.8,12 20.8,11.2 20,11.2 20,12 19.2,12 19.2,11.2 18.4,11.2 18.4,12 17.6,12 17.6,11.2 
		16.8,11.2 16.8,12 15.2,12 15.2,11.2 14.4,11.2 14.4,12 13.6,12 13.6,11.2 12.8,11.2 12.8,12 12,12 12,11.2 11.2,11.2 11.2,12 
		10.4,12 10.4,9.6 11.2,9.6 	"/>
	<rect x="8" y="8" class="st17" width="0.8" height="0.8"/>
	<rect x="12.8" y="9.6" class="st18" width="1.6" height="0.8"/>
	<polyline class="st18" points="18.4,9.6 18.4,10.4 19.2,10.4 19.2,9.6 18.4,9.6 	"/>
	<polygon class="st19" points="13.6,10.4 13.6,11.2 14.4,11.2 14.4,10.4 	"/>
	<rect x="14.4" y="14.4" class="st20" width="3.2" height="0.8"/>
	<rect x="15.2" y="13.6" class="st21" width="1.6" height="0.8"/>
	<polygon class="st21" points="14.4,15.2 14.4,16 17.6,16 17.6,15.2 	"/>
</g>
<g id="Clouds">
	<polygon class="st22" points="6.4,12.8 6.4,13.6 7.2,13.6 7.2,14.4 8,14.4 8,12.8 	"/>
	<polygon class="st23" points="8,12 8,14.4 8.8,14.4 8.8,13.6 9.6,13.6 9.6,12.8 8.8,12.8 8.8,12 	"/>
	<polygon class="st23" points="20.8,12.8 22.4,12.8 22.4,13.6 24,13.6 24,11.2 22.4,11.2 22.4,12 20.8,12 	"/>
	<polygon class="st22" points="14.4,8.8 14.4,9.6 16.8,9.6 16.8,8.8 19.2,8.8 19.2,8 16,8 16,8.8 	"/>
	<rect x="18.4" y="10.4" class="st22" width="1.6" height="0.8"/>
	<rect x="14.4" y="9.6" class="st24" width="4" height="0.8"/>
	<polygon class="st22" points="6.4,20.8 6.4,21.6 11.2,21.6 11.2,22.4 12.8,22.4 12.8,23.2 16,23.2 16,21.6 15.2,21.6 15.2,22.4 
		14.4,22.4 14.4,21.6 13.6,21.6 13.6,20.8 12,20.8 12,20 8,20 8,20.8 	"/>
	<polygon class="st25" points="14.4,20 14.4,21.6 16,21.6 16,23.2 16.8,23.2 16.8,22.4 17.6,22.4 17.6,20.8 16.8,20.8 16.8,20 	"/>
	<rect x="13.6" y="20.8" class="st26" width="0.8" height="0.8"/>
	<rect x="14.4" y="21.6" class="st26" width="0.8" height="0.8"/>
	<rect x="20" y="20" class="st25" width="0.8" height="0.8"/>
	<rect x="17.6" y="10.4" class="st27" width="0.8" height="0.8"/>
	<rect x="16" y="10.4" class="st22" width="1.6" height="0.8"/>
	<polygon class="st22" points="24,11.2 25.6,11.2 25.6,12 27.2,12 27.2,12.8 24.8,12.8 24.8,13.6 24,13.6 	"/>
	<polygon class="st22" points="17.6,23.2 20,23.2 20,22.4 22.4,22.4 22.4,21.6 20.8,21.6 20.8,20.8 17.6,20.8 	"/>
	<polygon class="st22" points="21.6,4 23.2,4 23.2,5.6 24.8,5.6 24.8,7.2 22.4,7.2 22.4,6.4 21.6,6.4 21.6,5.6 20,5.6 20,4.8 
		21.6,4.8 	"/>
	<polygon class="st22" points="7.2,6.4 8.8,6.4 8.8,5.6 11.2,5.6 11.2,4.8 8,4.8 8,5.6 7.2,5.6 	"/>
</g>
<g id="Wheat_Dark">
	<polyline class="st28" points="1.6,7.2 1.6,5.6 2.4,5.6 2.4,3.2 4,3.2 4,8 3.2,8 3.2,8.8 1.6,8.8 1.6,7.2 	"/>
	<polyline class="st28" points="2.4,9.6 0.8,9.6 0.8,15.2 1.6,15.2 1.6,16.8 3.2,16.8 3.2,16 2.4,16 2.4,9.6 	"/>
	<polyline class="st28" points="3.2,17.6 4,17.6 4,18.4 3.2,18.4 3.2,17.6 	"/>
	<polyline class="st28" points="3.2,20 3.2,20.8 4,20.8 4,24 6.4,24 6.4,22.4 5.6,22.4 5.6,21.6 4.8,21.6 4.8,20 3.2,20 	"/>
	<polyline class="st28" points="8.8,24.8 8,24.8 8,27.2 9.6,27.2 9.6,28 11.2,28 11.2,28.8 12.8,28.8 12.8,30.4 19.2,30.4 
		19.2,28.8 20.8,28.8 20.8,28 18.4,28 18.4,28.8 16.8,28.8 16.8,29.6 15.2,29.6 15.2,28.8 13.6,28.8 13.6,27.2 10.4,27.2 10.4,26.4 
		9.6,26.4 9.6,25.6 8.8,25.6 8.8,24.8 	"/>
	<polyline class="st28" points="27.2,21.6 26.4,21.6 26.4,22.4 25.6,22.4 25.6,23.2 23.2,23.2 23.2,25.6 22.4,25.6 22.4,26.4 
		20.8,26.4 20.8,28 22.4,28 22.4,27.2 25.6,27.2 25.6,24 27.2,24 27.2,21.6 	"/>
	<polyline class="st28" points="28.8,20 28.8,20.8 28,20.8 28,21.6 27.2,21.6 27.2,20 28.8,20 	"/>
	<polyline class="st28" points="28,17.6 28,18.4 30.4,18.4 30.4,15.2 31.2,15.2 31.2,5.6 29.6,5.6 29.6,8 28.8,8 28.8,8.8 29.6,8.8 
		29.6,12 29.6,16 28.8,16 28.8,17.6 28,17.6 	"/>
	<polyline class="st28" points="28,3.2 28,5.6 29.6,5.6 29.6,3.2 28,3.2 	"/>
</g>
<g id="Wheat_Normal">
	<polyline class="st0" points="0,5.6 0,8.8 0.8,8.8 0.8,10.4 1.6,10.4 1.6,9.6 2.4,9.6 2.4,8 4,8 4,7.2 1.6,7.2 1.6,6.4 0.8,6.4 
		0.8,5.6 0,5.6 	"/>
	<polygon class="st0" points="2.4,5.6 2.4,7.2 4.8,7.2 4.8,6.4 5.6,6.4 5.6,5.6 6.4,5.6 6.4,4.8 3.2,4.8 3.2,5.6 	"/>
	<polygon class="st0" points="1.6,14.4 2.4,14.4 2.4,13.6 3.2,13.6 3.2,12.8 1.6,12.8 	"/>
	<polyline class="st0" points="3.2,12 3.2,11.2 4,11.2 4,12 3.2,12 	"/>
	<rect x="4" y="10.4" class="st0" width="0.8" height="0.8"/>
	<polyline class="st0" points="28,12 28,12.8 28.8,12.8 28.8,14.4 30.4,14.4 30.4,12.8 29.6,12.8 29.6,12 28,12 	"/>
	<polyline class="st0" points="26.4,4 25.6,4 25.6,5.6 26.4,5.6 26.4,6.4 27.2,6.4 27.2,7.2 28,7.2 28,8 29.6,8 29.6,9.6 30.4,9.6 
		30.4,10.4 31.2,10.4 31.2,8.8 32,8.8 32,6.4 30.4,6.4 30.4,7.2 29.6,7.2 29.6,6.4 28.8,6.4 28.8,5.6 27.2,5.6 27.2,4.8 26.4,4.8 
		26.4,4 	"/>
	<polyline class="st0" points="28.8,17.6 28.8,16.8 29.6,16.8 29.6,17.6 28.8,17.6 	"/>
	<polyline class="st0" points="30.4,16.8 30.4,17.6 29.6,17.6 29.6,18.4 28,18.4 28,17.6 26.4,17.6 26.4,18.4 25.6,18.4 25.6,19.2 
		26.4,19.2 26.4,20 27.2,20 27.2,20.8 28,20.8 28,20 28.8,20 28.8,19.2 30.4,19.2 30.4,18.4 31.2,18.4 31.2,17.6 32,17.6 32,16.8 
		30.4,16.8 	"/>
	<polyline class="st0" points="28.8,21.6 28.8,20.8 29.6,20.8 29.6,21.6 28.8,21.6 	"/>
	<polyline class="st0" points="30.4,21.6 30.4,22.4 31.2,22.4 31.2,21.6 30.4,21.6 	"/>
	<polyline class="st0" points="28.8,22.4 28.8,23.2 29.6,23.2 29.6,22.4 28.8,22.4 	"/>
	<polyline class="st0" points="27.2,22.4 27.2,21.6 28,21.6 28,22.4 27.2,22.4 	"/>
	<polyline class="st0" points="27.2,24 28,24 28,23.2 27.2,23.2 27.2,24 	"/>
	<polyline class="st0" points="22.4,23.2 22.4,24 23.2,24 23.2,24.8 24,24.8 24,24 24.8,24 24.8,22.4 24,22.4 24,21.6 23.2,21.6 
		23.2,23.2 22.4,23.2 	"/>
	<polyline class="st0" points="23.2,26.4 23.2,25.6 25.6,25.6 25.6,24.8 27.2,24.8 27.2,25.6 28.8,25.6 28.8,26.4 27.2,26.4 
		27.2,27.2 25.6,27.2 25.6,26.4 23.2,26.4 	"/>
	<polyline class="st0" points="18.4,26.4 18.4,28 20,28 20,27.2 19.2,27.2 19.2,26.4 18.4,26.4 	"/>
	<polyline class="st0" points="19.2,24.8 19.2,26.4 20,26.4 20,27.2 21.6,27.2 21.6,25.6 20.8,25.6 20.8,24.8 19.2,24.8 	"/>
	<polyline class="st0" points="19.2,29.6 19.2,28.8 20.8,28.8 20.8,28 21.6,28 21.6,28.8 23.2,28.8 23.2,29.6 24,29.6 24,30.4 
		22.4,30.4 22.4,29.6 19.2,29.6 	"/>
	<polygon class="st0" points="8,28.8 8,30.4 9.6,30.4 9.6,29.6 12.8,29.6 12.8,28.8 11.2,28.8 11.2,28 8.8,28 8.8,28.8 	"/>
	<polyline class="st0" points="13.6,27.2 13.6,28 11.2,28 11.2,26.4 10.4,26.4 10.4,25.6 9.6,25.6 9.6,24 10.4,24 10.4,23.2 
		11.2,23.2 11.2,24 12,24 12,24.8 12.8,24.8 12.8,27.2 13.6,27.2 	"/>
	<polyline class="st0" points="8.8,27.2 6.4,27.2 6.4,26.4 4.8,26.4 4.8,25.6 7.2,25.6 7.2,26.4 8.8,26.4 8.8,27.2 	"/>
	<polyline class="st0" points="8,21.6 8,22.4 7.2,22.4 7.2,23.2 6.4,23.2 6.4,24.8 7.2,24.8 7.2,25.6 8,25.6 8,24.8 8.8,24.8 
		8.8,24 9.6,24 9.6,22.4 8.8,22.4 8.8,21.6 8,21.6 	"/>
	<polyline class="st0" points="0.8,21.6 0.8,22.4 2.4,22.4 2.4,23.2 4,23.2 4,22.4 3.2,22.4 3.2,20.8 2.4,20.8 2.4,21.6 0.8,21.6 	
		"/>
	<polyline class="st0" points="4,21.6 4.8,21.6 4.8,22.4 4,22.4 4,21.6 	"/>
	<polygon class="st0" points="4,20.8 4.8,20.8 4.8,20 5.6,20 5.6,19.2 6.4,19.2 6.4,18.4 5.6,18.4 5.6,16.8 4.8,16.8 4.8,17.6 
		4,17.6 4,18.4 2.4,18.4 2.4,17.6 1.6,17.6 1.6,16.8 0.8,16.8 0.8,16 0,16 0,17.6 0.8,17.6 0.8,18.4 1.6,18.4 1.6,19.2 3.2,19.2 
		3.2,20 4,20 	"/>
</g>
<g id="Wheat_Shadows">
	<rect x="2.4" y="13.6" class="st29" width="0.8" height="0.8"/>
	<rect x="3.2" y="12" class="st29" width="0.8" height="0.8"/>
	<rect x="4" y="23.2" class="st30" width="0.8" height="0.8"/>
	<rect x="5.6" y="24" class="st30" width="0.8" height="0.8"/>
	<polyline class="st29" points="3.2,25.6 3.2,26.4 4.8,26.4 4.8,25.6 3.2,25.6 	"/>
	<rect x="4.8" y="26.4" class="st29" width="1.6" height="0.8"/>
	<polyline class="st30" points="9.6,27.2 9.6,28 10.4,28 10.4,27.2 9.6,27.2 	"/>
	<polyline class="st30" points="13.6,29.6 13.6,30.4 12.8,30.4 12.8,29.6 13.6,29.6 	"/>
	<polyline class="st30" points="17.6,29.6 17.6,30.4 19.2,30.4 19.2,29.6 17.6,29.6 	"/>
	<rect x="23.2" y="26.4" class="st29" width="2.4" height="0.8"/>
	<polyline class="st29" points="26.4,23.2 26.4,24 27.2,24 27.2,23.2 26.4,23.2 	"/>
	<polyline class="st29" points="28,22.4 28,23.2 28.8,23.2 28.8,22.4 28,22.4 	"/>
	<polyline class="st29" points="29.6,21.6 29.6,22.4 30.4,22.4 30.4,21.6 29.6,21.6 	"/>
	<rect x="25.6" y="24" class="st30" width="0.8" height="0.8"/>
</g>
<g id="Wheat_Light">
	<rect y="4.8" class="st31" width="0.8" height="0.8"/>
	<rect x="0.8" y="5.6" class="st31" width="0.8" height="0.8"/>
	<rect x="1.6" y="7.2" class="st31" width="0.8" height="0.8"/>
	<polygon class="st31" points="2.4,6.4 2.4,7.2 4,7.2 4,5.6 3.2,5.6 3.2,6.4 	"/>
	<polygon class="st31" points="4,4.8 4,5.6 5.6,5.6 5.6,4.8 6.4,4.8 6.4,4 4.8,4 4.8,4.8 	"/>
	<polygon class="st31" points="1.6,12.8 1.6,12 2.4,12 2.4,11.2 3.2,11.2 3.2,12.8 	"/>
	<rect x="3.2" y="10.4" class="st31" width="0.8" height="0.8"/>
	<rect x="0.8" y="16" class="st31" width="0.8" height="0.8"/>
	<polygon class="st31" points="1.6,17.6 2.4,17.6 2.4,18.4 3.2,18.4 3.2,17.6 3.2,16.8 1.6,16.8 	"/>
	<rect x="4" y="16.8" class="st31" width="0.8" height="0.8"/>
	<rect x="4.8" y="16" class="st31" width="0.8" height="0.8"/>
	<rect x="5.6" y="16.8" class="st31" width="0.8" height="1.6"/>
	<rect x="3.2" y="21.6" class="st31" width="0.8" height="0.8"/>
	<rect x="4" y="22.4" class="st31" width="0.8" height="0.8"/>
	<rect x="4.8" y="23.2" class="st31" width="0.8" height="0.8"/>
	<rect x="0.8" y="20.8" class="st31" width="1.6" height="0.8"/>
	<rect x="3.2" y="24.8" class="st31" width="4" height="0.8"/>
	<rect x="7.2" y="25.6" class="st31" width="1.6" height="0.8"/>
	<rect x="8.8" y="26.4" class="st31" width="0.8" height="0.8"/>
	<rect x="7.2" y="21.6" class="st31" width="0.8" height="0.8"/>
	<rect x="8" y="20.8" class="st31" width="0.8" height="0.8"/>
	<rect x="10.4" y="22.4" class="st31" width="0.8" height="0.8"/>
	<rect x="11.2" y="23.2" class="st31" width="0.8" height="0.8"/>
	<rect x="12" y="24" class="st31" width="0.8" height="0.8"/>
	<rect x="12.8" y="25.6" class="st31" width="0.8" height="1.6"/>
	<rect x="3.2" y="2.4" class="st32" width="0.8" height="0.8"/>
	<rect x="13.6" y="28.8" class="st32" width="1.6" height="0.8"/>
	<rect x="15.2" y="29.6" class="st32" width="0.8" height="0.8"/>
	<rect x="17.6" y="28.8" class="st32" width="0.8" height="0.8"/>
	<rect x="18.4" y="25.6" class="st31" width="0.8" height="0.8"/>
	<rect x="19.2" y="24" class="st31" width="0.8" height="0.8"/>
	<rect x="21.6" y="28" class="st31" width="1.6" height="0.8"/>
	<rect x="23.2" y="28.8" class="st31" width="0.8" height="0.8"/>
	<rect x="24" y="24.8" class="st31" width="1.6" height="0.8"/>
	<rect x="22.4" y="22.4" class="st31" width="0.8" height="0.8"/>
	<rect x="23.2" y="20.8" class="st31" width="0.8" height="0.8"/>
	<rect x="24" y="21.6" class="st31" width="0.8" height="0.8"/>
	<rect x="27.2" y="24.8" class="st31" width="1.6" height="0.8"/>
	<rect x="27.2" y="22.4" class="st31" width="0.8" height="0.8"/>
	<rect x="28" y="21.6" class="st31" width="1.6" height="0.8"/>
	<rect x="29.6" y="20.8" class="st31" width="1.6" height="0.8"/>
	<polygon class="st31" points="25.6,18.4 26.4,18.4 26.4,17.6 28,17.6 28,16.8 27.2,16.8 27.2,16 26.4,16 26.4,16.8 25.6,16.8 	"/>
	<rect x="28.8" y="17.6" class="st31" width="0.8" height="0.8"/>
	<rect x="29.6" y="16.8" class="st31" width="0.8" height="0.8"/>
	<rect x="30.4" y="16" class="st31" width="1.6" height="0.8"/>
	<rect x="29.6" y="12" class="st31" width="0.8" height="0.8"/>
	<polygon class="st31" points="28,12 29.6,12 29.6,11.2 28.8,11.2 28.8,10.4 27.2,10.4 27.2,11.2 28,11.2 	"/>
	<rect x="28.8" y="5.6" class="st31" width="0.8" height="0.8"/>
	<polygon class="st31" points="30.4,6.4 32,6.4 32,4.8 31.2,4.8 31.2,5.6 30.4,5.6 	"/>
	<rect x="27.2" y="4.8" class="st31" width="1.6" height="0.8"/>
	<rect x="26.4" y="4" class="st31" width="0.8" height="0.8"/>
	<rect x="28.8" y="3.2" class="st32" width="0.8" height="0.8"/>
	<rect x="28" y="2.4" class="st32" width="0.8" height="0.8"/>
	<rect x="26.4" y="22.4" class="st32" width="0.8" height="0.8"/>
</g>
</svg>
